# xmcd
#
# Track frame offsets:
#	150
#	18916
#	32019
#	55459
#	69771
#	87278
#	106002
#	129848
#	140217
#	155998
#	172017
#	185746
#	201275
#
# Disc length: 2922 seconds
#
# Revision: 1
# Processed by: cddbd v1.4PL0 Copyright (c) Steve Scherf et al.
# Submitted via: audiograbber 1.80
#
DISCID=b60b680d
DTITLE=Hasse Andersson - Boots Och Nya Jeans
DYEAR=1900
DGENRE=
TTITLE0=Min gamla gitarr
TTITLE1=En liten Elin
TTITLE2=Ingen dag utan en kram
TTITLE3=Boots och nya jeans
TTITLE4=Tänker du på mig
TTITLE5=Åh, nej!
TTITLE6=Om ett hus kunde tala
TTITLE7=Så speciell
TTITLE8=Du är min vän
TTITLE9=Det är du och jag
TTITLE10=Du berör mig
TTITLE11=Will the circle be unbroken
TTITLE12=Angel Buddy (Änglahund)
EXTD=
EXTT0=
EXTT1=
EXTT2=
EXTT3=
EXTT4=
EXTT5=
EXTT6=
EXTT7=
EXTT8=
EXTT9=
EXTT10=
EXTT11=
EXTT12=
PLAYORDER=
